# xmcd
#
# Track frame offsets:
#	150
#	18165
#	33767
#	48800
#	69920
#	84472
#	104142
#	118960
#	130617
#	142860
#	166737
#	184600
#	203762
#
# Disc length: 3041 seconds
#
# Revision: 5
# Processed by: cddbd v1.5.2PL0 Copyright (c) Steve Scherf et al.
# Submitted via: dBpowerAMP V4.0
#
DISCID=9f0bdf0d
DTITLE=Colin Linden - Easin' Back To Tennessee
DYEAR=2006
DGENRE=Folk
TTITLE0=Easin' Back To Tennessee
TTITLE1=Go Back Old Devil
TTITLE2=Broke Down Engine
TTITLE3=Nowhere To Go
TTITLE4=A True Friend Won't Let You Drown
TTITLE5=There Would Be Hell To Pay
TTITLE6=You Can't Get The Stuff No More
TTITLE7=Paramount
TTITLE8=Keep It Clean
TTITLE9=Champ
TTITLE10=Dry Spell Blues
TTITLE11=Trouble Soon Be Over
TTITLE12=Tears Come Rolling Down
EXTD=
EXTT0=
EXTT1=
EXTT2=
EXTT3=
EXTT4=
EXTT5=
EXTT6=
EXTT7=
EXTT8=
EXTT9=
EXTT10=
EXTT11=
EXTT12=
PLAYORDER=
